#!OML:ASF X:\für Bonn\!DataBase\2005_08_10_Bjorn_Final\c3d\bjorn.ASF
:FULLY-SPECIFIED
:DEGREES
835
root -0.155631 1.56019 10.1986 -2431.83 -3.0231 186.315
lowerback 0.255659 -0.123133 -6.08501
upperback 4.35866 -0.145312 -3.2521
thorax 4.37488 -0.338016 0.0234391
lowerneck -22.738 -4.41544 -0.351825
upperneck 11.8608 -6.26026 2.97961
head 7.43592 -2.62143 0.259003
rclavicle 1.59028e-015 -1.09332e-014
rhumerus -425.144 54.5861 256.542
rradius 111.488
rwrist -33.7208
rhand 7.67906 7.90271
rfingers 7.12502
rthumb 32.9218 -19.114
lclavicle 1.59028e-015 -1.09332e-014
lhumerus -65.1404 -66.6035 107.741
lradius 108.907
lwrist 37.7267
lhand -0.666971 -12.2109
lfingers 7.12502
lthumb 24.9514 736.18
rfemur -184.148 -158.543 184.543
rtibia 27.2379
rfoot 2.20158 -7.62792
rtoes 11.4679
lfemur 175.417 175.053 162.691
ltibia 23.461
lfoot 3.74279 15.1436
ltoes 3.74881
836
root -0.154914 1.55974 10.1983 -2431.85 -3.02297 186.306
lowerback 0.288908 -0.129762 -6.10221
upperback 4.3673 -0.156876 -3.24803
thorax 4.36574 -0.344678 0.0369148
lowerneck -22.8506 -4.33505 -0.33341
upperneck 12.0147 -6.16159 2.94844
head 7.50222 -2.57448 0.254528
rclavicle 3.81667e-014 -1.46107e-014
rhumerus -425.14 54.6814 256.532
rradius 111.536
rwrist -33.7946
rhand 7.56226 7.88546
rfingers 7.12502
rthumb 32.8107 -19.1545
lclavicle 3.81667e-014 -1.46107e-014
lhumerus -65.229 -66.6059 107.788
lradius 108.943
lwrist 37.7489
lhand -0.770747 -12.2765
lfingers 7.12502
lthumb 24.8519 736.128
rfemur -184.138 -158.537 184.542
rtibia 27.2382
rfoot 2.24746 -7.60414
rtoes 11.3033
lfemur 175.436 175.035 162.699
ltibia 23.4698
lfoot 3.71673 15.1511
ltoes 3.84053
837
root -0.154245 1.55979 10.1978 -2431.87 -3.00693 186.299
lowerback 0.309522 -0.144802 -6.11601
upperback 4.39319 -0.177612 -3.22337
thorax 4.38239 -0.356753 0.0691347
lowerneck -22.9444 -4.25463 -0.363664
upperneck 12.1405 -6.05108 2.94232
head 7.55842 -2.52281 0.268263
rclavicle -1.11319e-014 -3.71727e-014
rhumerus -425.111 54.8063 256.568
rradius 111.601
rwrist -33.8493
rhand 7.44776 7.84632
rfingers 7.12502
rthumb 32.7018 -19.2163
lclavicle -1.11319e-014 -3.71727e-014
lhumerus -65.2366 -66.5496 107.792
lradius 108.969
lwrist 37.7527
lhand -0.871616 -12.3339
lfingers 7.12502
lthumb 24.7553 736.084
rfemur -184.113 -158.557 184.556
rtibia 27.2366
rfoot 2.25378 -7.59937
rtoes 11.1934
lfemur 175.464 175.013 162.726
ltibia 23.4823
lfoot 3.71441 15.1364
ltoes 3.79123
838
root -0.154752 1.55961 10.1966 -2431.89 -3.00771 186.281
lowerback 0.32101 -0.155034 -6.12991
upperback 4.41139 -0.19162 -3.21933
thorax 4.39579 -0.365198 0.0802988
lowerneck -23.0288 -4.16342 -0.324519
upperneck 12.2841 -5.93946 2.8858
head 7.61523 -2.47241 0.254658
rclavicle 1.27222e-014 5.86415e-015
rhumerus -425.083 54.9095 256.591
rradius 111.667
rwrist -33.9057
rhand 7.37378 7.81013
rfingers 7.12502
rthumb 32.6314 -19.2671
lclavicle 1.27222e-014 5.86415e-015
lhumerus -65.2808 -66.5097 107.791
lradius 109.001
lwrist 37.7782
lhand -0.998756 -12.3963
lfingers 7.12502
lthumb 24.6334 736.038
rfemur -184.107 -158.527 184.542
rtibia 27.2399
rfoot 2.31334 -7.55725
rtoes 11.2612
lfemur 175.486 175.042 162.721
ltibia 23.4878
lfoot 3.61389 15.1937
ltoes 4.0528
839
root -0.154061 1.55959 10.1958 -2431.92 -2.99164 186.275
lowerback 0.339128 -0.162326 -6.13351
upperback 4.45126 -0.202338 -3.20783
thorax 4.42793 -0.372965 0.0932499
lowerneck -23.1464 -4.07087 -0.321375
upperneck 12.4468 -5.82111 2.86145
head 7.68611 -2.41651 0.257625
rclavicle 3.18055e-015 8.24956e-015
rhumerus -425.03 55.0026 256.641
rradius 111.746
rwrist -33.9263
rhand 7.28564 7.78746
rfingers 7.12502
rthumb 32.5475 -19.3071
lclavicle 3.18055e-015 8.24956e-015
lhumerus -65.2888 -66.5002 107.771
lradius 109.044
lwrist 37.8107
lhand -1.11772 -12.4365
lfingers 7.12502
lthumb 24.5194 736.014
rfemur -184.073 -158.547 184.552
rtibia 27.239
rfoot 2.32518 -7.53472
rtoes 11.2091
lfemur 175.526 175.091 162.74
ltibia 23.4998
lfoot 3.5424 15.2361
ltoes 4.25186
840
root -0.153393 1.55914 10.1963 -2431.93 -2.97688 186.266
lowerback 0.344568 -0.171646 -6.14434
upperback 4.48111 -0.214395 -3.1915
thorax 4.45695 -0.381142 0.115243
lowerneck -23.2933 -3.97301 -0.303675
upperneck 12.6423 -5.69415 2.79016
head 7.77068 -2.36051 0.243126
rclavicle -4.85035e-014 5.20816e-014
rhumerus -424.999 55.1117 256.682
rradius 111.827
rwrist -33.9262
rhand 7.17051 7.77938
rfingers 7.12502
rthumb 32.438 -19.3377
lclavicle -4.85035e-014 5.20816e-014
lhumerus -65.2674 -66.4698 107.713
lradius 109.087
lwrist 37.8334
lhand -1.176 -12.5018
lfingers 7.12502
lthumb 24.4635 735.956
rfemur -184.071 -158.538 184.572
rtibia 27.2397
rfoot 2.37006 -7.51036
rtoes 11.0995
lfemur 175.54 175.092 162.762
ltibia 23.5123
lfoot 3.46064 15.269
ltoes 4.57545
841
root -0.153073 1.55902 10.1952 -2431.96 -2.96296 186.25
lowerback 0.351076 -0.174977 -6.13194
upperback 4.52456 -0.21926 -3.19401
thorax 4.49896 -0.385753 0.104798
lowerneck -23.4466 -3.87394 -0.293841
upperneck 12.8593 -5.56953 2.75491
head 7.86541 -2.30151 0.241482
rclavicle -1.66979e-014 -4.77083e-015
rhumerus -424.964 55.1941 256.702
rradius 111.905
rwrist -33.8657
rhand 7.03546 7.82333
rfingers 7.12502
rthumb 32.3094 -19.3201
lclavicle -1.66979e-014 -4.77083e-015
lhumerus -65.2231 -66.4438 107.626
lradius 109.132
lwrist 37.8786
lhand -1.1774 -12.5501
lfingers 7.12502
lthumb 24.4622 735.908
rfemur -184.048 -158.539 184.579
rtibia 27.2353
rfoot 2.37805 -7.49496
rtoes 11.2131
lfemur 175.565 175.035 162.787
ltibia 23.5301
lfoot 3.50205 15.2283
ltoes 4.41502
842
root -0.152494 1.55912 10.1942 -2431.98 -2.96062 186.242
lowerback 0.359414 -0.183766 -6.1416
upperback 4.56929 -0.23105 -3.19352
thorax 4.54191 -0.394722 0.109415
lowerneck -23.6597 -3.77426 -0.309091
upperneck 13.1287 -5.44058 2.73158
head 7.98889 -2.23913 0.247197
rclavicle -4.77083e-015 -1.20265e-014
rhumerus -424.94 55.2886 256.715
rradius 111.983
rwrist -33.7336
rhand 6.88221 7.90513
rfingers 7.12502
rthumb 32.1636 -19.2679
lclavicle -4.77083e-015 -1.20265e-014
lhumerus -65.1122 -66.418 107.46
lradius 109.165
lwrist 38.0479
lhand -1.04576 -12.6563
lfingers 7.12502
lthumb 24.5883 735.785
rfemur -184.016 -158.51 184.566
rtibia 27.2245
rfoot 2.43125 -7.45144
rtoes 11.2491
lfemur 175.591 175.041 162.795
ltibia 23.5539
lfoot 3.40419 15.26
ltoes 4.8065
843
root -0.152169 1.55894 10.1938 -2432 -2.94501 186.235
lowerback 0.353247 -0.197445 -6.15124
upperback 4.624 -0.247501 -3.17746
thorax 4.60395 -0.406702 0.129659
lowerneck -23.9371 -3.67238 -0.333964
upperneck 13.4626 -5.30334 2.67873
head 8.1443 -2.17551 0.244426
rclavicle -1.59028e-014 1.6201e-014
rhumerus -424.892 55.4108 256.771
rradius 112.057
rwrist -33.5781
rhand 6.69998 8.00436
rfingers 7.12502
rthumb 31.9901 -19.2036
lclavicle -1.59028e-014 1.6201e-014
lhumerus -64.8726 -66.3396 107.182
lradius 109.207
lwrist 38.2634
lhand -0.776349 -12.7517
lfingers 7.12502
lthumb 24.8466 735.654
rfemur -183.99 -158.54 184.585
rtibia 27.2071
rfoot 2.43915 -7.45995
rtoes 11.4575
lfemur 175.6 175.045 162.817
ltibia 23.5842
lfoot 3.35369 15.2668
ltoes 4.87898
844
root -0.151728 1.55887 10.1943 -2432.03 -2.92873 186.222
lowerback 0.359798 -0.202956 -6.14573
upperback 4.68657 -0.255025 -3.17219
thorax 4.66634 -0.414191 0.130561
lowerneck -24.2708 -3.57239 -0.337886
upperneck 13.8784 -5.17045 2.58184
head 8.33566 -2.11636 0.221717
rclavicle -8.74653e-015 4.77083e-015
rhumerus -424.857 55.4991 256.816
rradius 112.134
rwrist -33.4094
rhand 6.49309 8.15214
rfingers 7.12502
rthumb 31.7931 -19.0951
lclavicle -8.74653e-015 4.77083e-015
lhumerus -64.5975 -66.2831 106.85
lradius 109.262
lwrist 38.516
lhand -0.42078 -12.8259
lfingers 7.12502
lthumb 25.1873 735.532
rfemur -183.944 -158.554 184.593
rtibia 27.1844
rfoot 2.45747 -7.43577
rtoes 11.4165
lfemur 175.625 175.035 162.843
ltibia 23.6187
lfoot 3.31674 15.2605
ltoes 4.85833
845
root -0.151452 1.55878 10.195 -2432.05 -2.91481 186.206
lowerback 0.333371 -0.213136 -6.15683
upperback 4.7725 -0.264902 -3.15313
thorax 4.77261 -0.425338 0.154035
lowerneck -24.6841 -3.47045 -0.367539
upperneck 14.3271 -5.02442 2.47334
head 8.5526 -2.0533 0.199966
rclavicle 5.56597e-015 -4.75095e-014
rhumerus -424.729 55.6117 256.952
rradius 112.205
rwrist -33.2236
rhand 6.26681 8.34995
rfingers 7.12502
rthumb 31.5775 -18.9398
lclavicle 5.56597e-015 -4.75095e-014
lhumerus -64.1364 -66.1968 106.36
lradius 109.307
lwrist 38.7533
lhand -0.00500244 -12.9159
lfingers 7.12502
lthumb 25.5856 735.386
rfemur -183.911 -158.521 184.597
rtibia 27.152
rfoot 2.49233 -7.39084
rtoes 11.5426
lfemur 175.637 175.106 162.854
ltibia 23.6629
lfoot 3.18797 15.3093
ltoes 5.07124
846
root -0.150776 1.55886 10.1949 -2432.07 -2.91352 186.19
lowerback 0.328855 -0.220298 -6.17758
upperback 4.84498 -0.27316 -3.14218
thorax 4.8523 -0.435188 0.174961
lowerneck -25.0139 -3.38126 -0.427549
upperneck 14.7025 -4.88567 2.39201
head 8.73348 -1.99494 0.193523
rclavicle 1.59028e-014 2.80286e-014
rhumerus -424.654 55.7156 257.053
rradius 112.287
rwrist -33.0152
rhand 5.99162 8.55156
rfingers 7.12502
rthumb 31.3153 -18.7893
lclavicle 1.59028e-014 2.80286e-014
lhumerus -63.6799 -66.0978 105.858
lradius 109.372
lwrist 39.0398
lhand 0.504144 -12.9346
lfingers 7.12502
lthumb 26.0732 735.296
rfemur -183.871 -158.527 184.597
rtibia 27.1201
rfoot 2.53188 -7.35517
rtoes 11.6316
lfemur 175.65 175.093 162.864
ltibia 23.704
lfoot 3.13537 15.2812
ltoes 5.09803
847
root -0.149948 1.55892 10.1955 -2432.1 -2.88266 186.167
lowerback 0.315207 -0.212955 -6.14714
upperback 4.93101 -0.2627 -3.14342
thorax 4.94983 -0.434665 0.155173
lowerneck -25.3077 -3.30576 -0.497408
upperneck 15.0252 -4.76209 2.3314
head 8.89204 -1.9432 0.194942
rclavicle 3.89618e-014 -2.20651e-014
rhumerus -424.546 55.7912 257.181
rradius 112.399
rwrist -32.883
rhand 5.68228 8.68202
rfingers 7.12502
rthumb 31.0205 -18.7155
lclavicle 3.89618e-014 -2.20651e-014
lhumerus -63.1249 -66.0404 105.248
lradius 109.441
lwrist 39.3436
lhand 1.05928 -12.8891
lfingers 7.12502
lthumb 26.6046 735.262
rfemur -183.823 -158.498 184.616
rtibia 27.0837
rfoot 2.59418 -7.29305
rtoes 11.8335
lfemur 175.663 175.035 162.909
ltibia 23.7504
lfoot 3.11637 15.2426
ltoes 5.09663
848
root -0.149661 1.55884 10.196 -2432.12 -2.88319 186.151
lowerback 0.307293 -0.214375 -6.13496
upperback 5.01383 -0.26406 -3.16253
thorax 5.04155 -0.440384 0.126528
lowerneck -25.5037 -3.21799 -0.615756
upperneck 15.3412 -4.60853 2.29254
head 9.03411 -1.88019 0.217631
rclavicle -1.66979e-014 5.66536e-015
rhumerus -424.435 55.8539 257.3
rradius 112.513
rwrist -32.734
rhand 5.36474 8.86484
rfingers 7.12502
rthumb 30.7178 -18.59
lclavicle -1.66979e-014 5.66536e-015
lhumerus -62.5244 -65.9432 104.557
lradius 109.51
lwrist 39.6603
lhand 1.68757 -12.8621
lfingers 7.12502
lthumb 27.2058 735.196
rfemur -183.78 -158.52 184.611
rtibia 27.045
rfoot 2.59673 -7.27698
rtoes 12.042
lfemur 175.681 175.107 162.904
ltibia 23.7983
lfoot 2.98637 15.2736
ltoes 5.23191
849
root -0.148744 1.55832 10.1961 -2432.15 -2.85068 186.139
lowerback 0.286787 -0.209138 -6.1053
upperback 5.1239 -0.255824 -3.15995
thorax 5.16874 -0.442653 0.110353
lowerneck -25.5629 -3.14185 -0.777601
upperneck 15.5793 -4.45424 2.26429
head 9.12783 -1.82154 0.253682
rclavicle -1.74931e-014 -3.76697e-014
rhumerus -424.233 55.8923 257.541
rradius 112.619
rwrist -32.6136
rhand 5.02352 9.09862
rfingers 7.12502
rthumb 30.3924 -18.4169
lclavicle -1.74931e-014 -3.76697e-014
lhumerus -61.7698 -65.85 103.746
lradius 109.577
lwrist 40.0219
lhand 2.32548 -12.7875
lfingers 7.12502
lthumb 27.8158 735.174
rfemur -183.726 -158.588 184.654
rtibia 27.0033
rfoot 2.55793 -7.30152
rtoes 12.3091
lfemur 175.689 175.078 162.954
ltibia 23.8516
lfoot 2.92472 15.2294
ltoes 5.31032
